<svg width="17" height="17" viewBox="0 0 17 17" fill="none" xmlns="http://www.w3.org/2000/svg">
<path d="M12.5071 10.5031L11.5055 9.50156L12.5071 8.49998C12.7702 8.23688 12.9789 7.92452 13.1213 7.58076C13.2637 7.23699 13.337 6.86855 13.337 6.49646C13.337 6.12437 13.2637 5.75593 13.1213 5.41216C12.9789 5.0684 12.7702 4.75605 12.5071 4.49294C12.244 4.22983 11.9316 4.02113 11.5879 3.87874C11.2441 3.73634 10.8756 3.66306 10.5036 3.66306C10.1315 3.66306 9.76303 3.73634 9.41926 3.87874C9.0755 4.02113 8.76315 4.22983 8.50004 4.49294L7.49846 5.49452L6.49687 4.49294L7.49846 3.49136C8.29768 2.70505 9.37523 2.26641 10.4964 2.27097C11.6176 2.27554 12.6915 2.72294 13.4843 3.51573C14.2771 4.30852 14.7245 5.38246 14.7291 6.50363C14.7336 7.62479 14.295 8.70234 13.5087 9.50156L12.5071 10.5031ZM10.5032 12.507L9.50162 13.5086C9.10816 13.9085 8.63941 14.2266 8.1224 14.4445C7.6054 14.6623 7.05038 14.7757 6.48935 14.7779C5.92833 14.7802 5.3724 14.6714 4.85364 14.4578C4.33488 14.2441 3.86355 13.9299 3.46684 13.5332C3.07013 13.1365 2.7559 12.6651 2.54225 12.1464C2.32861 11.6276 2.2198 11.0717 2.22208 10.5107C2.22437 9.94965 2.33771 9.39462 2.55556 8.87762C2.77342 8.36062 3.09149 7.89186 3.49141 7.4984L4.493 6.49682L5.49458 7.4984L4.493 8.49998C4.22989 8.76309 4.02119 9.07544 3.87879 9.41921C3.7364 9.76297 3.66311 10.1314 3.66311 10.5035C3.66311 10.8756 3.7364 11.244 3.87879 11.5878C4.02119 11.9316 4.22989 12.2439 4.493 12.507C4.7561 12.7701 5.06846 12.9788 5.41222 13.1212C5.75599 13.2636 6.12443 13.3369 6.49652 13.3369C6.86861 13.3369 7.23705 13.2636 7.58082 13.1212C7.92458 12.9788 8.23693 12.7701 8.50004 12.507L9.50162 11.5054L10.5032 12.507ZM10.5032 5.49452L11.5055 6.49682L6.49687 11.5047L5.49458 10.5031L10.5032 5.49523V5.49452Z" fill="black"/>
</svg>
