<svg width="18" height="18" viewBox="0 0 18 18" fill="none" xmlns="http://www.w3.org/2000/svg">
<path d="M11.55 9.22C12.0836 8.75813 12.5116 8.18688 12.8049 7.54502C13.0982 6.90316 13.2501 6.20571 13.25 5.5C13.25 4.17392 12.7233 2.90215 11.7856 1.96447C10.8479 1.02678 9.57613 0.5 8.25005 0.5C6.92397 0.5 5.6522 1.02678 4.71451 1.96447C3.77683 2.90215 3.25005 4.17392 3.25005 5.5C3.25622 6.20958 3.41582 6.90944 3.71788 7.55154C4.01995 8.19365 4.45734 8.76282 5.00005 9.22C3.60019 9.85388 2.41251 10.8775 1.57903 12.1685C0.745544 13.4596 0.301521 14.9633 0.300049 16.5C0.300049 16.7652 0.405406 17.0196 0.592942 17.2071C0.780478 17.3946 1.03483 17.5 1.30005 17.5C1.56527 17.5 1.81962 17.3946 2.00716 17.2071C2.19469 17.0196 2.30005 16.7652 2.30005 16.5C2.30005 14.9087 2.93219 13.3826 4.05741 12.2574C5.18263 11.1321 6.70875 10.5 8.30005 10.5C9.89135 10.5 11.4175 11.1321 12.5427 12.2574C13.6679 13.3826 14.3 14.9087 14.3 16.5C14.3 16.7652 14.4054 17.0196 14.5929 17.2071C14.7805 17.3946 15.0348 17.5 15.3 17.5C15.5653 17.5 15.8196 17.3946 16.0072 17.2071C16.1947 17.0196 16.3 16.7652 16.3 16.5C16.2942 14.9578 15.8428 13.4502 15.0001 12.1586C14.1573 10.867 12.9593 9.84651 11.55 9.22ZM8.25005 8.5C7.6567 8.5 7.07669 8.32405 6.58334 7.99441C6.08999 7.66476 5.70547 7.19623 5.47841 6.64805C5.25135 6.09987 5.19194 5.49667 5.30769 4.91473C5.42345 4.33279 5.70917 3.79824 6.12873 3.37868C6.54829 2.95912 7.08283 2.6734 7.66478 2.55764C8.24672 2.44189 8.84992 2.5013 9.3981 2.72836C9.94628 2.95542 10.4148 3.33994 10.7445 3.83329C11.0741 4.32664 11.25 4.90666 11.25 5.5C11.25 6.29565 10.934 7.05871 10.3714 7.62132C9.80876 8.18393 9.0457 8.5 8.25005 8.5ZM16.75 3.5C16.4848 3.5 16.2305 3.60536 16.0429 3.79289C15.8554 3.98043 15.75 4.23478 15.75 4.5V6.5C15.75 6.76522 15.8554 7.01957 16.0429 7.20711C16.2305 7.39464 16.4848 7.5 16.75 7.5C17.0153 7.5 17.2696 7.39464 17.4572 7.20711C17.6447 7.01957 17.75 6.76522 17.75 6.5V4.5C17.75 4.23478 17.6447 3.98043 17.4572 3.79289C17.2696 3.60536 17.0153 3.5 16.75 3.5ZM16 8.79C15.8173 8.98163 15.7137 9.23523 15.71 9.5C15.7093 9.63161 15.7345 9.76207 15.7843 9.88391C15.834 10.0057 15.9074 10.1166 16 10.21C16.0972 10.2983 16.2089 10.3694 16.33 10.42C16.4498 10.4729 16.5792 10.5002 16.71 10.5002C16.8409 10.5002 16.9703 10.4729 17.09 10.42C17.2141 10.3751 17.3268 10.3034 17.4202 10.2101C17.5135 10.1168 17.5851 10.0041 17.63 9.88C17.686 9.76132 17.7134 9.63118 17.71 9.5C17.7112 9.30138 17.6532 9.10691 17.5434 8.94139C17.4336 8.77587 17.277 8.6468 17.0935 8.57063C16.9101 8.49446 16.7081 8.47465 16.5134 8.51372C16.3186 8.55279 16.1399 8.64897 16 8.79Z" fill="black"/>
</svg>
