<svg width="21" height="20" viewBox="0 0 21 20" fill="none" xmlns="http://www.w3.org/2000/svg">
<path d="M21 8.99969C21.0028 8.29485 20.8193 7.60178 20.4681 6.99067C20.1169 6.37956 19.6104 5.87211 19 5.51969C19.015 5.34668 19.015 5.1727 19 4.99969C19 4.20404 18.6839 3.44098 18.1213 2.87837C17.5587 2.31576 16.7956 1.99969 16 1.99969H15.82C15.6535 1.538 15.3762 1.12422 15.0125 0.794636C14.6488 0.465049 14.2099 0.229723 13.7341 0.109293C13.2583 -0.0111373 12.7602 -0.0129928 12.2835 0.103889C11.8068 0.220771 11.3661 0.452821 11 0.779689C10.6339 0.452821 10.1931 0.220771 9.71646 0.103889C9.23978 -0.0129928 8.7417 -0.0111373 8.2659 0.109293C7.7901 0.229723 7.35112 0.465049 6.98744 0.794636C6.62377 1.12422 6.34651 1.538 6.17998 1.99969H5.99998C5.20433 1.99969 4.44127 2.31576 3.87866 2.87837C3.31605 3.44098 2.99998 4.20404 2.99998 4.99969C2.98493 5.1727 2.98493 5.34668 2.99998 5.51969C2.43244 5.84048 1.95192 6.29513 1.60022 6.84406C1.24853 7.39299 1.03634 8.01956 0.982121 8.66923C0.9279 9.3189 1.03329 9.97197 1.28912 10.5716C1.54496 11.1712 1.94347 11.6993 2.44998 12.1097C2.12226 12.721 1.9591 13.4069 1.97653 14.1003C1.99396 14.7936 2.19138 15.4706 2.54941 16.0646C2.90744 16.6586 3.41377 17.1493 4.01871 17.4886C4.62366 17.8278 5.30642 18.004 5.99998 17.9997H6.17998C6.34651 18.4614 6.62377 18.8752 6.98744 19.2047C7.35112 19.5343 7.7901 19.7697 8.2659 19.8901C8.7417 20.0105 9.23978 20.0124 9.71646 19.8955C10.1931 19.7786 10.6339 19.5466 11 19.2197C11.3661 19.5466 11.8068 19.7786 12.2835 19.8955C12.7602 20.0124 13.2583 20.0105 13.7341 19.8901C14.2099 19.7697 14.6488 19.5343 15.0125 19.2047C15.3762 18.8752 15.6535 18.4614 15.82 17.9997H16C16.6893 17.9953 17.3658 17.8129 17.9639 17.4701C18.5619 17.1273 19.0613 16.6357 19.4134 16.0431C19.7655 15.4505 19.9586 14.777 19.9737 14.0878C19.9889 13.3986 19.8257 12.7172 19.5 12.1097C19.9664 11.7362 20.3433 11.2631 20.6028 10.7249C20.8624 10.1867 20.9981 9.59719 21 8.99969ZM9.99998 6.54969C9.78218 6.42512 9.5548 6.31811 9.31998 6.22969C9.06803 6.14482 8.79268 6.16352 8.55451 6.28166C8.31634 6.39981 8.13485 6.60773 8.04998 6.85969C7.96512 7.11164 7.98381 7.38699 8.10196 7.62517C8.22011 7.86334 8.42803 8.04482 8.67998 8.12969C9.06493 8.26885 9.3979 8.52278 9.63395 8.85718C9.87 9.19159 9.99776 9.59037 9.99998 9.99969V11.5497C9.78218 11.4251 9.5548 11.3181 9.31998 11.2297C9.06803 11.1448 8.79268 11.1635 8.55451 11.2817C8.31634 11.3998 8.13485 11.6077 8.04998 11.8597C7.96512 12.1116 7.98381 12.387 8.10196 12.6252C8.22011 12.8633 8.42803 13.0448 8.67998 13.1297C9.06493 13.2689 9.3979 13.5228 9.63395 13.8572C9.87 14.1916 9.99776 14.5904 9.99998 14.9997V16.9997C9.99998 17.2649 9.89463 17.5193 9.70709 17.7068C9.51956 17.8943 9.2652 17.9997 8.99998 17.9997C8.80652 17.9984 8.61757 17.9411 8.45605 17.8346C8.29453 17.7281 8.16737 17.577 8.08998 17.3997C8.25766 17.3013 8.41807 17.191 8.56998 17.0697C8.6711 16.9856 8.75468 16.8825 8.81593 16.7662C8.87719 16.6498 8.91493 16.5225 8.92701 16.3916C8.93908 16.2607 8.92524 16.1287 8.88629 16.0031C8.84734 15.8775 8.78403 15.7608 8.69998 15.6597C8.61594 15.5586 8.5128 15.475 8.39645 15.4137C8.28011 15.3525 8.15284 15.3147 8.02191 15.3027C7.89098 15.2906 7.75895 15.3044 7.63337 15.3434C7.50778 15.3823 7.3911 15.4456 7.28998 15.5297C6.92891 15.8337 6.47197 16.0001 5.99998 15.9997C5.46955 15.9997 4.96084 15.789 4.58577 15.4139C4.2107 15.0388 3.99998 14.5301 3.99998 13.9997C4.00477 13.6233 4.11569 13.2559 4.31998 12.9397C4.54441 12.9799 4.77198 13 4.99998 12.9997C5.2652 12.9997 5.51955 12.8943 5.70709 12.7068C5.89463 12.5193 5.99998 12.2649 5.99998 11.9997C5.99998 11.7345 5.89463 11.4801 5.70709 11.2926C5.51955 11.105 5.2652 10.9997 4.99998 10.9997C4.76377 11.001 4.52951 10.9569 4.30998 10.8697C3.95033 10.74 3.63539 10.5099 3.40247 10.2067C3.16956 9.9035 3.02843 9.53989 2.99581 9.15895C2.96319 8.77802 3.04044 8.39571 3.21841 8.05733C3.39639 7.71894 3.66762 7.43866 3.99998 7.24969C4.14208 7.38043 4.29609 7.4976 4.45998 7.59969C4.69072 7.7323 4.96469 7.76781 5.22161 7.69842C5.47854 7.62904 5.69738 7.46043 5.82998 7.22969C5.96259 6.99895 5.99811 6.72498 5.92872 6.46806C5.85933 6.21113 5.69072 5.9923 5.45998 5.85969C5.31921 5.78203 5.20181 5.66808 5.11998 5.52969C5.02753 5.36913 4.98571 5.18441 4.99998 4.99969C4.99998 4.73447 5.10534 4.48012 5.29288 4.29258C5.48041 4.10505 5.73477 3.99969 5.99998 3.99969C6.06965 3.98997 6.14032 3.98997 6.20998 3.99969C6.26292 4.16036 6.32639 4.31737 6.39998 4.46969C6.46531 4.58428 6.55267 4.68481 6.65702 4.76549C6.76136 4.84618 6.88064 4.90542 7.00798 4.93981C7.13532 4.9742 7.26821 4.98306 7.39899 4.96588C7.52976 4.94869 7.65585 4.90581 7.76998 4.83969C7.99169 4.7063 8.15306 4.49216 8.22019 4.24228C8.28733 3.9924 8.25499 3.72623 8.12998 3.49969C8.04608 3.34629 8.00142 3.17453 7.99998 2.99969C7.99998 2.73447 8.10534 2.48012 8.29288 2.29258C8.48041 2.10505 8.73477 1.99969 8.99998 1.99969C9.2652 1.99969 9.51956 2.10505 9.70709 2.29258C9.89463 2.48012 9.99998 2.73447 9.99998 2.99969V6.54969ZM17.69 10.8697C17.4705 10.9569 17.2362 11.001 17 10.9997C16.7348 10.9997 16.4804 11.105 16.2929 11.2926C16.1053 11.4801 16 11.7345 16 11.9997C16 12.2649 16.1053 12.5193 16.2929 12.7068C16.4804 12.8943 16.7348 12.9997 17 12.9997C17.228 13 17.4556 12.9799 17.68 12.9397C17.8843 13.2559 17.9952 13.6233 18 13.9997C18 14.5301 17.7893 15.0388 17.4142 15.4139C17.0391 15.789 16.5304 15.9997 16 15.9997C15.528 16.0001 15.0711 15.8337 14.71 15.5297C14.5058 15.36 14.2425 15.2783 13.9781 15.3027C13.7136 15.327 13.4697 15.4555 13.3 15.6597C13.1302 15.8639 13.0486 16.1272 13.073 16.3916C13.0973 16.656 13.2258 16.9 13.43 17.0697C13.5819 17.191 13.7423 17.3013 13.91 17.3997C13.8326 17.577 13.7054 17.7281 13.5439 17.8346C13.3824 17.9411 13.1935 17.9984 13 17.9997C12.7348 17.9997 12.4804 17.8943 12.2929 17.7068C12.1053 17.5193 12 17.2649 12 16.9997V14.9997C12.0022 14.5904 12.13 14.1916 12.366 13.8572C12.6021 13.5228 12.935 13.2689 13.32 13.1297C13.5719 13.0448 13.7799 12.8633 13.898 12.6252C14.0162 12.387 14.0349 12.1116 13.95 11.8597C13.8651 11.6077 13.6836 11.3998 13.4455 11.2817C13.2073 11.1635 12.9319 11.1448 12.68 11.2297C12.4452 11.3181 12.2178 11.4251 12 11.5497V9.99969C12.0022 9.59037 12.13 9.19159 12.366 8.85718C12.6021 8.52278 12.935 8.26885 13.32 8.12969C13.5719 8.04482 13.7799 7.86334 13.898 7.62517C14.0162 7.38699 14.0349 7.11164 13.95 6.85969C13.8651 6.60773 13.6836 6.39981 13.4455 6.28166C13.2073 6.16352 12.9319 6.14482 12.68 6.22969C12.4452 6.31811 12.2178 6.42512 12 6.54969V2.99969C12 2.73447 12.1053 2.48012 12.2929 2.29258C12.4804 2.10505 12.7348 1.99969 13 1.99969C13.2652 1.99969 13.5196 2.10505 13.7071 2.29258C13.8946 2.48012 14 2.73447 14 2.99969C13.9986 3.17453 13.9539 3.34629 13.87 3.49969C13.8035 3.61323 13.76 3.73878 13.7421 3.86915C13.7242 3.99952 13.7322 4.13214 13.7656 4.25942C13.799 4.38669 13.8573 4.50611 13.937 4.61084C14.0167 4.71556 14.1162 4.80353 14.23 4.86969C14.3441 4.93581 14.4702 4.97869 14.601 4.99588C14.7318 5.01306 14.8646 5.0042 14.992 4.96981C15.1193 4.93542 15.2386 4.87618 15.343 4.79549C15.4473 4.71481 15.5347 4.61428 15.6 4.49969C15.6748 4.33763 15.7383 4.17056 15.79 3.99969C15.8596 3.98997 15.9303 3.98997 16 3.99969C16.2652 3.99969 16.5196 4.10505 16.7071 4.29258C16.8946 4.48012 17 4.73447 17 4.99969C16.9985 5.19572 16.9393 5.38698 16.83 5.54969C16.7482 5.67946 16.6346 5.78617 16.5 5.85969C16.2692 5.9923 16.1006 6.21113 16.0312 6.46806C15.9619 6.72498 15.9974 6.99895 16.13 7.22969C16.2626 7.46043 16.4814 7.62904 16.7384 7.69842C16.9953 7.76781 17.2692 7.7323 17.5 7.59969C17.6795 7.50259 17.8473 7.38515 18 7.24969C18.3335 7.43532 18.6069 7.71251 18.7879 8.04852C18.969 8.38454 19.0501 8.76534 19.0217 9.14596C18.9933 9.52659 18.8566 9.89115 18.6277 10.1966C18.3988 10.502 18.0873 10.7356 17.73 10.8697H17.69Z" fill="black"/>
</svg>
