<svg width="171" height="1599" viewBox="0 0 171 1599" fill="none" xmlns="http://www.w3.org/2000/svg">
<path d="M22 620C22 625.523 17.5228 630 12 630C6.47715 630 2 625.523 2 620C2 614.477 6.47715 610 12 610C17.5228 610 22 614.477 22 620Z" stroke="white" stroke-width="4"/>
<path d="M22 837C22 842.523 17.5228 847 12 847C6.47715 847 2 842.523 2 837C2 831.477 6.47715 827 12 827C17.5228 827 22 831.477 22 837Z" stroke="white" stroke-width="4"/>
<path d="M22 1054C22 1059.52 17.5228 1064 12 1064C6.47715 1064 2 1059.52 2 1054C2 1048.48 6.47715 1044 12 1044C17.5228 1044 22 1048.48 22 1054Z" stroke="white" stroke-width="4"/>
<path d="M22 1271C22 1276.52 17.5228 1281 12 1281C6.47715 1281 2 1276.52 2 1271C2 1265.48 6.47715 1261 12 1261C17.5228 1261 22 1265.48 22 1271Z" stroke="white" stroke-width="4"/>
<path d="M22 1488C22 1493.52 17.5228 1498 12 1498C6.47715 1498 2 1493.52 2 1488C2 1482.48 6.47715 1478 12 1478C17.5228 1478 22 1482.48 22 1488Z" stroke="white" stroke-width="4"/>
<path d="M6.34 1379.16C5.74 1379.16 5.24667 1378.99 4.86 1378.64C4.48667 1378.28 4.3 1377.84 4.3 1377.32C4.3 1376.79 4.48667 1376.34 4.86 1375.98C5.24667 1375.62 5.74 1375.44 6.34 1375.44C6.92667 1375.44 7.40667 1375.62 7.78 1375.98C8.16667 1376.34 8.36 1376.79 8.36 1377.32C8.36 1377.84 8.16667 1378.28 7.78 1378.64C7.40667 1378.99 6.92667 1379.16 6.34 1379.16ZM11.9845 1379.16C11.3845 1379.16 10.8912 1378.99 10.5045 1378.64C10.1312 1378.28 9.94453 1377.84 9.94453 1377.32C9.94453 1376.79 10.1312 1376.34 10.5045 1375.98C10.8912 1375.62 11.3845 1375.44 11.9845 1375.44C12.5712 1375.44 13.0512 1375.62 13.4245 1375.98C13.8112 1376.34 14.0045 1376.79 14.0045 1377.32C14.0045 1377.84 13.8112 1378.28 13.4245 1378.64C13.0512 1378.99 12.5712 1379.16 11.9845 1379.16ZM17.6291 1379.16C17.0291 1379.16 16.5357 1378.99 16.1491 1378.64C15.7757 1378.28 15.5891 1377.84 15.5891 1377.32C15.5891 1376.79 15.7757 1376.34 16.1491 1375.98C16.5357 1375.62 17.0291 1375.44 17.6291 1375.44C18.2157 1375.44 18.6957 1375.62 19.0691 1375.98C19.4557 1376.34 19.6491 1376.79 19.6491 1377.32C19.6491 1377.84 19.4557 1378.28 19.0691 1378.64C18.6957 1378.99 18.2157 1379.16 17.6291 1379.16Z" fill="white"/>
<rect x="8" y="626" width="8" height="6" fill="#333333"/>
<rect x="8" y="843" width="8" height="6" fill="#333333"/>
<rect x="8" y="1060" width="8" height="6" fill="#333333"/>
<rect x="8" y="1277" width="8" height="6" fill="#333333"/>
<rect x="8" y="1494" width="8" height="6" fill="#333333"/>
<line x1="12" y1="825" x2="12" y2="625" stroke="white" stroke-width="4"/>
<line x1="12" y1="397" x2="12" stroke="white" stroke-width="4"/>
<line x1="12" y1="1042" x2="12" y2="842" stroke="white" stroke-width="4"/>
<line x1="12" y1="1259" x2="12" y2="1059" stroke="white" stroke-width="4"/>
<line x1="12" y1="1366" x2="12" y2="1276" stroke="white" stroke-width="4"/>
<line x1="12" y1="1477" x2="12" y2="1387" stroke="white" stroke-width="4"/>
<line x1="12" y1="1593" x2="12" y2="1493" stroke="white" stroke-width="4"/>
<circle cx="12" cy="620" r="6" fill="white"/>
<path d="M22 406C22 411.523 17.5228 416 12 416C6.47715 416 2 411.523 2 406C2 400.477 6.47715 396 12 396C17.5228 396 22 400.477 22 406Z" stroke="white" stroke-width="4"/>
<rect x="8" y="412" width="8" height="6" fill="#333333"/>
<line x1="12" y1="611" x2="12" y2="411" stroke="white" stroke-width="4"/>
<circle cx="12" cy="406" r="6" fill="white"/>
<circle cx="12" cy="837" r="6" fill="white"/>
<circle cx="12" cy="1054" r="6" fill="white"/>
<circle cx="12" cy="1271" r="6" fill="white"/>
<circle cx="12" cy="1488" r="6" fill="white"/>
<rect x="6" y="1587" width="12" height="12" fill="white"/>
<rect x="6" width="12" height="12" fill="white"/>
<rect x="72" y="1056" width="16" height="432" rx="4" fill="#FEB139"/>
<rect x="99" y="839" width="16" height="434" rx="4" fill="#F55353"/>
<path d="M72 412C72 409.791 73.7909 408 76 408H84C86.2091 408 88 409.791 88 412V1048C88 1050.21 86.2091 1052 84 1052H76C73.7909 1052 72 1050.21 72 1048V412Z" fill="#143F6B"/>
<path d="M72 6.48499e-05H88V400C88 402.209 86.2091 404 84 404H76C73.7909 404 72 402.209 72 400V6.48499e-05Z" fill="#26C94A"/>
<path d="M99 529C99 526.791 100.791 525 103 525H111C113.209 525 115 526.791 115 529V831C115 833.209 113.209 835 111 835H103C100.791 835 99 833.209 99 831V529Z" fill="#FEDC2A"/>
<path d="M126 52C126 49.7909 127.791 48 130 48H138C140.209 48 142 49.7909 142 52V517C142 519.209 140.209 521 138 521H130C127.791 521 126 519.209 126 517V52Z" fill="#2A59FE"/>
<rect x="98" y="861" width="18" height="6" fill="#333333"/>
<line x1="88" y1="1292" x2="162" y2="1292" stroke="#FEB139" stroke-width="2"/>
<line x1="88" y1="864" x2="162" y2="864" stroke="#143F6B" stroke-width="2"/>
<path d="M115 1078H162" stroke="#F55353" stroke-width="2"/>
<rect x="126" y="222" width="18" height="6" fill="#333333"/>
<path d="M99 6.48499e-05H115V517C115 519.209 113.209 521 111 521H103C100.791 521 99 519.209 99 517V6.48499e-05Z" fill="#FE2AE9"/>
<path d="M115 650H162" stroke="#FEDC2A" stroke-width="2"/>
<circle cx="165" cy="1292" r="6" fill="#FEB139"/>
<circle cx="165" cy="864" r="6" fill="#143F6B"/>
<circle cx="165" cy="1078" r="6" fill="#F55353"/>
<circle cx="165" cy="650" r="6" fill="#FEDC2A"/>
<path d="M115 225H162" stroke="#FE2AE9" stroke-width="2"/>
<circle cx="165" cy="225" r="6" fill="#FE2AE9"/>
<circle cx="165" cy="14" r="6" fill="#26C94A"/>
<line x1="142" y1="436" x2="162" y2="436" stroke="#2A59FE" stroke-width="2"/>
<circle cx="165" cy="436" r="6" fill="#2A59FE"/>
<rect x="98" y="11" width="18" height="6" fill="#333333"/>
<line x1="88" y1="14" x2="162" y2="14" stroke="#26C94A" stroke-width="2"/>
</svg>
