<svg width="234" height="1851" viewBox="0 0 234 1851" fill="none" xmlns="http://www.w3.org/2000/svg">
<path d="M85 872C85 877.523 80.5228 882 75 882C69.4772 882 65 877.523 65 872C65 866.477 69.4772 862 75 862C80.5228 862 85 866.477 85 872Z" stroke="black" stroke-width="4"/>
<path d="M85 1089C85 1094.52 80.5228 1099 75 1099C69.4772 1099 65 1094.52 65 1089C65 1083.48 69.4772 1079 75 1079C80.5228 1079 85 1083.48 85 1089Z" stroke="black" stroke-width="4"/>
<path d="M85 1306C85 1311.52 80.5228 1316 75 1316C69.4772 1316 65 1311.52 65 1306C65 1300.48 69.4772 1296 75 1296C80.5228 1296 85 1300.48 85 1306Z" stroke="black" stroke-width="4"/>
<path d="M85 1523C85 1528.52 80.5228 1533 75 1533C69.4772 1533 65 1528.52 65 1523C65 1517.48 69.4772 1513 75 1513C80.5228 1513 85 1517.48 85 1523Z" stroke="black" stroke-width="4"/>
<path d="M85 1740C85 1745.52 80.5228 1750 75 1750C69.4772 1750 65 1745.52 65 1740C65 1734.48 69.4772 1730 75 1730C80.5228 1730 85 1734.48 85 1740Z" stroke="black" stroke-width="4"/>
<path d="M69.34 1631.16C68.74 1631.16 68.2467 1630.99 67.86 1630.64C67.4867 1630.28 67.3 1629.84 67.3 1629.32C67.3 1628.79 67.4867 1628.34 67.86 1627.98C68.2467 1627.62 68.74 1627.44 69.34 1627.44C69.9267 1627.44 70.4067 1627.62 70.78 1627.98C71.1667 1628.34 71.36 1628.79 71.36 1629.32C71.36 1629.84 71.1667 1630.28 70.78 1630.64C70.4067 1630.99 69.9267 1631.16 69.34 1631.16ZM74.9845 1631.16C74.3845 1631.16 73.8912 1630.99 73.5045 1630.64C73.1312 1630.28 72.9445 1629.84 72.9445 1629.32C72.9445 1628.79 73.1312 1628.34 73.5045 1627.98C73.8912 1627.62 74.3845 1627.44 74.9845 1627.44C75.5712 1627.44 76.0512 1627.62 76.4245 1627.98C76.8112 1628.34 77.0045 1628.79 77.0045 1629.32C77.0045 1629.84 76.8112 1630.28 76.4245 1630.64C76.0512 1630.99 75.5712 1631.16 74.9845 1631.16ZM80.6291 1631.16C80.0291 1631.16 79.5357 1630.99 79.1491 1630.64C78.7757 1630.28 78.5891 1629.84 78.5891 1629.32C78.5891 1628.79 78.7757 1628.34 79.1491 1627.98C79.5357 1627.62 80.0291 1627.44 80.6291 1627.44C81.2157 1627.44 81.6957 1627.62 82.0691 1627.98C82.4557 1628.34 82.6491 1628.79 82.6491 1629.32C82.6491 1629.84 82.4557 1630.28 82.0691 1630.64C81.6957 1630.99 81.2157 1631.16 80.6291 1631.16Z" fill="black"/>
<rect x="71" y="878" width="8" height="6" fill="#F0F0F0"/>
<rect x="71" y="1095" width="8" height="6" fill="#F0F0F0"/>
<rect x="71" y="1312" width="8" height="6" fill="#F0F0F0"/>
<rect x="71" y="1529" width="8" height="6" fill="#F0F0F0"/>
<rect x="71" y="1746" width="8" height="6" fill="#F0F0F0"/>
<line x1="75" y1="1077" x2="75" y2="877" stroke="black" stroke-width="4"/>
<line x1="75" y1="1294" x2="75" y2="1094" stroke="black" stroke-width="4"/>
<line x1="75" y1="1511" x2="75" y2="1311" stroke="black" stroke-width="4"/>
<line x1="75" y1="1618" x2="75" y2="1528" stroke="black" stroke-width="4"/>
<line x1="75" y1="1729" x2="75" y2="1639" stroke="black" stroke-width="4"/>
<line x1="75" y1="1845" x2="75" y2="1745" stroke="black" stroke-width="4"/>
<circle cx="75" cy="872" r="6" fill="black"/>
<path d="M85 658C85 663.523 80.5228 668 75 668C69.4772 668 65 663.523 65 658C65 652.477 69.4772 648 75 648C80.5228 648 85 652.477 85 658Z" stroke="black" stroke-width="4"/>
<rect x="71" y="664" width="8" height="6" fill="#F0F0F0"/>
<line x1="75" y1="863" x2="75" y2="663" stroke="black" stroke-width="4"/>
<circle cx="75" cy="658" r="6" fill="black"/>
<circle cx="75" cy="1089" r="6" fill="black"/>
<circle cx="75" cy="1306" r="6" fill="black"/>
<circle cx="75" cy="1523" r="6" fill="black"/>
<circle cx="75" cy="1740" r="6" fill="black"/>
<rect x="69" y="1839" width="12" height="12" fill="black"/>
<path d="M69 0H81V12H69V0Z" fill="black"/>
<rect x="135" y="1308" width="16" height="432" rx="4" fill="#FEB139"/>
<rect x="162" y="1091" width="16" height="434" rx="4" fill="#F55353"/>
<path d="M135 664C135 661.791 136.791 660 139 660H147C149.209 660 151 661.791 151 664V1300C151 1302.21 149.209 1304 147 1304H139C136.791 1304 135 1302.21 135 1300V664Z" fill="#143F6B"/>
<path d="M135 0H151V652C151 654.209 149.209 656 147 656H139C136.791 656 135 654.209 135 652V0Z" fill="#26C94A"/>
<path d="M162 781C162 778.791 163.791 777 166 777H174C176.209 777 178 778.791 178 781V1083C178 1085.21 176.209 1087 174 1087H166C163.791 1087 162 1085.21 162 1083V781Z" fill="#FEDC2A"/>
<path d="M189 534C189 531.791 190.791 530 193 530H201C203.209 530 205 531.791 205 534V701C205 703.209 203.209 705 201 705H193C190.791 705 189 703.209 189 701V534Z" fill="#2A59FE"/>
<rect x="161" y="1113" width="18" height="6" fill="#F0F0F0"/>
<line x1="151" y1="1544" x2="225" y2="1544" stroke="#FEB139" stroke-width="2"/>
<line x1="151" y1="1116" x2="225" y2="1116" stroke="#143F6B" stroke-width="2"/>
<path d="M178 1330H225" stroke="#F55353" stroke-width="2"/>
<rect x="189" y="474" width="18" height="6" fill="#F0F0F0"/>
<path d="M162 0H178V769C178 771.209 176.209 773 174 773H166C163.791 773 162 771.209 162 769V0Z" fill="#FE2AE9"/>
<path d="M178 902H225" stroke="#FEDC2A" stroke-width="2"/>
<circle cx="228" cy="1544" r="6" fill="#FEB139"/>
<circle cx="228" cy="1116" r="6" fill="#143F6B"/>
<circle cx="228" cy="1330" r="6" fill="#F55353"/>
<path d="M189 0H205V293C205 295.209 203.209 297 201 297H193C190.791 297 189 295.209 189 293V0Z" fill="#F55353"/>
<path d="M205 55H222" stroke="#F55353" stroke-width="2"/>
<circle cx="228" cy="55" r="6" fill="#F55353"/>
<circle cx="228" cy="902" r="6" fill="#FEDC2A"/>
<path d="M178 477H225" stroke="#FE2AE9" stroke-width="2"/>
<circle cx="228" cy="477" r="6" fill="#FE2AE9"/>
<circle cx="228" cy="266" r="6" fill="#26C94A"/>
<line x1="205" y1="688" x2="225" y2="688" stroke="#2A59FE" stroke-width="2"/>
<circle cx="228" cy="688" r="6" fill="#2A59FE"/>
<rect x="161" y="263" width="18" height="6" fill="#F0F0F0"/>
<line x1="151" y1="266" x2="225" y2="266" stroke="#26C94A" stroke-width="2"/>
<line x1="75" y1="646" x2="75" y2="446" stroke="black" stroke-width="4"/>
<circle cx="75" cy="441" r="6" fill="black"/>
<path d="M85 224C85 229.523 80.5228 234 75 234C69.4772 234 65 229.523 65 224C65 218.477 69.4772 214 75 214C80.5228 214 85 218.477 85 224Z" stroke="black" stroke-width="4"/>
<line x1="75" y1="429" x2="75" y2="229" stroke="black" stroke-width="4"/>
<line x1="75" y1="212" x2="75" y2="12" stroke="black" stroke-width="4"/>
<circle cx="75" cy="224" r="6" fill="black"/>
<path d="M85 441C85 446.523 80.5228 451 75 451C69.4772 451 65 446.523 65 441C65 435.477 69.4772 431 75 431C80.5228 431 85 435.477 85 441Z" stroke="black" stroke-width="4"/>
<path d="M0.78 876.26C1.23333 875.9 1.44 875.733 1.4 875.76C2.70667 874.68 3.73333 873.793 4.48 873.1C5.24 872.407 5.88 871.68 6.4 870.92C6.92 870.16 7.18 869.42 7.18 868.7C7.18 868.153 7.05333 867.727 6.8 867.42C6.54667 867.113 6.16667 866.96 5.66 866.96C5.15333 866.96 4.75333 867.153 4.46 867.54C4.18 867.913 4.04 868.447 4.04 869.14H0.74C0.766667 868.007 1.00667 867.06 1.46 866.3C1.92667 865.54 2.53333 864.98 3.28 864.62C4.04 864.26 4.88 864.08 5.8 864.08C7.38667 864.08 8.58 864.487 9.38 865.3C10.1933 866.113 10.6 867.173 10.6 868.48C10.6 869.907 10.1133 871.233 9.14 872.46C8.16667 873.673 6.92667 874.86 5.42 876.02H10.82V878.8H0.78V876.26ZM12.3258 871.5C12.3258 869.207 12.7658 867.4 13.6458 866.08C14.5391 864.76 15.9724 864.1 17.9458 864.1C19.9191 864.1 21.3458 864.76 22.2258 866.08C23.1191 867.4 23.5658 869.207 23.5658 871.5C23.5658 873.82 23.1191 875.64 22.2258 876.96C21.3458 878.28 19.9191 878.94 17.9458 878.94C15.9724 878.94 14.5391 878.28 13.6458 876.96C12.7658 875.64 12.3258 873.82 12.3258 871.5ZM20.2058 871.5C20.2058 870.153 20.0591 869.12 19.7658 868.4C19.4724 867.667 18.8658 867.3 17.9458 867.3C17.0258 867.3 16.4191 867.667 16.1258 868.4C15.8324 869.12 15.6858 870.153 15.6858 871.5C15.6858 872.407 15.7391 873.16 15.8458 873.76C15.9524 874.347 16.1658 874.827 16.4858 875.2C16.8191 875.56 17.3058 875.74 17.9458 875.74C18.5858 875.74 19.0658 875.56 19.3858 875.2C19.7191 874.827 19.9391 874.347 20.0458 873.76C20.1524 873.16 20.2058 872.407 20.2058 871.5ZM25.2527 876.26C25.706 875.9 25.9127 875.733 25.8727 875.76C27.1793 874.68 28.206 873.793 28.9527 873.1C29.7127 872.407 30.3527 871.68 30.8727 870.92C31.3927 870.16 31.6527 869.42 31.6527 868.7C31.6527 868.153 31.526 867.727 31.2727 867.42C31.0193 867.113 30.6393 866.96 30.1327 866.96C29.626 866.96 29.226 867.153 28.9327 867.54C28.6527 867.913 28.5127 868.447 28.5127 869.14H25.2127C25.2393 868.007 25.4793 867.06 25.9327 866.3C26.3993 865.54 27.006 864.98 27.7527 864.62C28.5127 864.26 29.3527 864.08 30.2727 864.08C31.8593 864.08 33.0527 864.487 33.8527 865.3C34.666 866.113 35.0727 867.173 35.0727 868.48C35.0727 869.907 34.586 871.233 33.6127 872.46C32.6393 873.673 31.3993 874.86 29.8927 876.02H35.2927V878.8H25.2527V876.26ZM36.6784 876.26C37.1318 875.9 37.3384 875.733 37.2984 875.76C38.6051 874.68 39.6318 873.793 40.3784 873.1C41.1384 872.407 41.7784 871.68 42.2984 870.92C42.8184 870.16 43.0784 869.42 43.0784 868.7C43.0784 868.153 42.9518 867.727 42.6984 867.42C42.4451 867.113 42.0651 866.96 41.5584 866.96C41.0518 866.96 40.6518 867.153 40.3584 867.54C40.0784 867.913 39.9384 868.447 39.9384 869.14H36.6384C36.6651 868.007 36.9051 867.06 37.3584 866.3C37.8251 865.54 38.4318 864.98 39.1784 864.62C39.9384 864.26 40.7784 864.08 41.6984 864.08C43.2851 864.08 44.4784 864.487 45.2784 865.3C46.0918 866.113 46.4984 867.173 46.4984 868.48C46.4984 869.907 46.0118 871.233 45.0384 872.46C44.0651 873.673 42.8251 874.86 41.3184 876.02H46.7184V878.8H36.6784V876.26Z" fill="black"/>
<path d="M0.78 662.26C1.23333 661.9 1.44 661.733 1.4 661.76C2.70667 660.68 3.73333 659.793 4.48 659.1C5.24 658.407 5.88 657.68 6.4 656.92C6.92 656.16 7.18 655.42 7.18 654.7C7.18 654.153 7.05333 653.727 6.8 653.42C6.54667 653.113 6.16667 652.96 5.66 652.96C5.15333 652.96 4.75333 653.153 4.46 653.54C4.18 653.913 4.04 654.447 4.04 655.14H0.74C0.766667 654.007 1.00667 653.06 1.46 652.3C1.92667 651.54 2.53333 650.98 3.28 650.62C4.04 650.26 4.88 650.08 5.8 650.08C7.38667 650.08 8.58 650.487 9.38 651.3C10.1933 652.113 10.6 653.173 10.6 654.48C10.6 655.907 10.1133 657.233 9.14 658.46C8.16667 659.673 6.92667 660.86 5.42 662.02H10.82V664.8H0.78V662.26ZM12.3258 657.5C12.3258 655.207 12.7658 653.4 13.6458 652.08C14.5391 650.76 15.9724 650.1 17.9458 650.1C19.9191 650.1 21.3458 650.76 22.2258 652.08C23.1191 653.4 23.5658 655.207 23.5658 657.5C23.5658 659.82 23.1191 661.64 22.2258 662.96C21.3458 664.28 19.9191 664.94 17.9458 664.94C15.9724 664.94 14.5391 664.28 13.6458 662.96C12.7658 661.64 12.3258 659.82 12.3258 657.5ZM20.2058 657.5C20.2058 656.153 20.0591 655.12 19.7658 654.4C19.4724 653.667 18.8658 653.3 17.9458 653.3C17.0258 653.3 16.4191 653.667 16.1258 654.4C15.8324 655.12 15.6858 656.153 15.6858 657.5C15.6858 658.407 15.7391 659.16 15.8458 659.76C15.9524 660.347 16.1658 660.827 16.4858 661.2C16.8191 661.56 17.3058 661.74 17.9458 661.74C18.5858 661.74 19.0658 661.56 19.3858 661.2C19.7191 660.827 19.9391 660.347 20.0458 659.76C20.1524 659.16 20.2058 658.407 20.2058 657.5ZM25.2527 662.26C25.706 661.9 25.9127 661.733 25.8727 661.76C27.1793 660.68 28.206 659.793 28.9527 659.1C29.7127 658.407 30.3527 657.68 30.8727 656.92C31.3927 656.16 31.6527 655.42 31.6527 654.7C31.6527 654.153 31.526 653.727 31.2727 653.42C31.0193 653.113 30.6393 652.96 30.1327 652.96C29.626 652.96 29.226 653.153 28.9327 653.54C28.6527 653.913 28.5127 654.447 28.5127 655.14H25.2127C25.2393 654.007 25.4793 653.06 25.9327 652.3C26.3993 651.54 27.006 650.98 27.7527 650.62C28.5127 650.26 29.3527 650.08 30.2727 650.08C31.8593 650.08 33.0527 650.487 33.8527 651.3C34.666 652.113 35.0727 653.173 35.0727 654.48C35.0727 655.907 34.586 657.233 33.6127 658.46C32.6393 659.673 31.3993 660.86 29.8927 662.02H35.2927V664.8H25.2527V662.26ZM36.9184 654.52C36.9718 653.093 37.4384 651.993 38.3184 651.22C39.1984 650.447 40.3918 650.06 41.8984 650.06C42.8984 650.06 43.7518 650.233 44.4584 650.58C45.1784 650.927 45.7184 651.4 46.0784 652C46.4518 652.6 46.6384 653.273 46.6384 654.02C46.6384 654.9 46.4184 655.62 45.9784 656.18C45.5384 656.727 45.0251 657.1 44.4384 657.3V657.38C45.1984 657.633 45.7984 658.053 46.2384 658.64C46.6784 659.227 46.8984 659.98 46.8984 660.9C46.8984 661.727 46.7051 662.46 46.3184 663.1C45.9451 663.727 45.3918 664.22 44.6584 664.58C43.9384 664.94 43.0784 665.12 42.0784 665.12C40.4784 665.12 39.1984 664.727 38.2384 663.94C37.2918 663.153 36.7918 661.967 36.7384 660.38H40.0584C40.0718 660.967 40.2384 661.433 40.5584 661.78C40.8784 662.113 41.3451 662.28 41.9584 662.28C42.4784 662.28 42.8784 662.133 43.1584 661.84C43.4518 661.533 43.5984 661.133 43.5984 660.64C43.5984 660 43.3918 659.54 42.9784 659.26C42.5784 658.967 41.9318 658.82 41.0384 658.82H40.3984V656.04H41.0384C41.7184 656.04 42.2651 655.927 42.6784 655.7C43.1051 655.46 43.3184 655.04 43.3184 654.44C43.3184 653.96 43.1851 653.587 42.9184 653.32C42.6518 653.053 42.2851 652.92 41.8184 652.92C41.3118 652.92 40.9318 653.073 40.6784 653.38C40.4384 653.687 40.2984 654.067 40.2584 654.52H36.9184Z" fill="black"/>
<path d="M0.78 445.26C1.23333 444.9 1.44 444.733 1.4 444.76C2.70667 443.68 3.73333 442.793 4.48 442.1C5.24 441.407 5.88 440.68 6.4 439.92C6.92 439.16 7.18 438.42 7.18 437.7C7.18 437.153 7.05333 436.727 6.8 436.42C6.54667 436.113 6.16667 435.96 5.66 435.96C5.15333 435.96 4.75333 436.153 4.46 436.54C4.18 436.913 4.04 437.447 4.04 438.14H0.74C0.766667 437.007 1.00667 436.06 1.46 435.3C1.92667 434.54 2.53333 433.98 3.28 433.62C4.04 433.26 4.88 433.08 5.8 433.08C7.38667 433.08 8.58 433.487 9.38 434.3C10.1933 435.113 10.6 436.173 10.6 437.48C10.6 438.907 10.1133 440.233 9.14 441.46C8.16667 442.673 6.92667 443.86 5.42 445.02H10.82V447.8H0.78V445.26ZM12.3258 440.5C12.3258 438.207 12.7658 436.4 13.6458 435.08C14.5391 433.76 15.9724 433.1 17.9458 433.1C19.9191 433.1 21.3458 433.76 22.2258 435.08C23.1191 436.4 23.5658 438.207 23.5658 440.5C23.5658 442.82 23.1191 444.64 22.2258 445.96C21.3458 447.28 19.9191 447.94 17.9458 447.94C15.9724 447.94 14.5391 447.28 13.6458 445.96C12.7658 444.64 12.3258 442.82 12.3258 440.5ZM20.2058 440.5C20.2058 439.153 20.0591 438.12 19.7658 437.4C19.4724 436.667 18.8658 436.3 17.9458 436.3C17.0258 436.3 16.4191 436.667 16.1258 437.4C15.8324 438.12 15.6858 439.153 15.6858 440.5C15.6858 441.407 15.7391 442.16 15.8458 442.76C15.9524 443.347 16.1658 443.827 16.4858 444.2C16.8191 444.56 17.3058 444.74 17.9458 444.74C18.5858 444.74 19.0658 444.56 19.3858 444.2C19.7191 443.827 19.9391 443.347 20.0458 442.76C20.1524 442.16 20.2058 441.407 20.2058 440.5ZM25.2527 445.26C25.706 444.9 25.9127 444.733 25.8727 444.76C27.1793 443.68 28.206 442.793 28.9527 442.1C29.7127 441.407 30.3527 440.68 30.8727 439.92C31.3927 439.16 31.6527 438.42 31.6527 437.7C31.6527 437.153 31.526 436.727 31.2727 436.42C31.0193 436.113 30.6393 435.96 30.1327 435.96C29.626 435.96 29.226 436.153 28.9327 436.54C28.6527 436.913 28.5127 437.447 28.5127 438.14H25.2127C25.2393 437.007 25.4793 436.06 25.9327 435.3C26.3993 434.54 27.006 433.98 27.7527 433.62C28.5127 433.26 29.3527 433.08 30.2727 433.08C31.8593 433.08 33.0527 433.487 33.8527 434.3C34.666 435.113 35.0727 436.173 35.0727 437.48C35.0727 438.907 34.586 440.233 33.6127 441.46C32.6393 442.673 31.3993 443.86 29.8927 445.02H35.2927V447.8H25.2527V445.26ZM36.8784 445.4V442.64L43.1984 433.6H47.0184V442.44H48.6584V445.4H47.0184V448H43.5984V445.4H36.8784ZM43.8384 437.36L40.4784 442.44H43.8384V437.36Z" fill="black"/>
<path d="M1.78 228.26C2.23333 227.9 2.44 227.733 2.4 227.76C3.70667 226.68 4.73333 225.793 5.48 225.1C6.24 224.407 6.88 223.68 7.4 222.92C7.92 222.16 8.18 221.42 8.18 220.7C8.18 220.153 8.05333 219.727 7.8 219.42C7.54667 219.113 7.16667 218.96 6.66 218.96C6.15333 218.96 5.75333 219.153 5.46 219.54C5.18 219.913 5.04 220.447 5.04 221.14H1.74C1.76667 220.007 2.00667 219.06 2.46 218.3C2.92667 217.54 3.53333 216.98 4.28 216.62C5.04 216.26 5.88 216.08 6.8 216.08C8.38667 216.08 9.58 216.487 10.38 217.3C11.1933 218.113 11.6 219.173 11.6 220.48C11.6 221.907 11.1133 223.233 10.14 224.46C9.16667 225.673 7.92667 226.86 6.42 228.02H11.82V230.8H1.78V228.26ZM13.3258 223.5C13.3258 221.207 13.7658 219.4 14.6458 218.08C15.5391 216.76 16.9724 216.1 18.9458 216.1C20.9191 216.1 22.3458 216.76 23.2258 218.08C24.1191 219.4 24.5658 221.207 24.5658 223.5C24.5658 225.82 24.1191 227.64 23.2258 228.96C22.3458 230.28 20.9191 230.94 18.9458 230.94C16.9724 230.94 15.5391 230.28 14.6458 228.96C13.7658 227.64 13.3258 225.82 13.3258 223.5ZM21.2058 223.5C21.2058 222.153 21.0591 221.12 20.7658 220.4C20.4724 219.667 19.8658 219.3 18.9458 219.3C18.0258 219.3 17.4191 219.667 17.1258 220.4C16.8324 221.12 16.6858 222.153 16.6858 223.5C16.6858 224.407 16.7391 225.16 16.8458 225.76C16.9524 226.347 17.1658 226.827 17.4858 227.2C17.8191 227.56 18.3058 227.74 18.9458 227.74C19.5858 227.74 20.0658 227.56 20.3858 227.2C20.7191 226.827 20.9391 226.347 21.0458 225.76C21.1524 225.16 21.2058 224.407 21.2058 223.5ZM26.2527 228.26C26.706 227.9 26.9127 227.733 26.8727 227.76C28.1793 226.68 29.206 225.793 29.9527 225.1C30.7127 224.407 31.3527 223.68 31.8727 222.92C32.3927 222.16 32.6527 221.42 32.6527 220.7C32.6527 220.153 32.526 219.727 32.2727 219.42C32.0193 219.113 31.6393 218.96 31.1327 218.96C30.626 218.96 30.226 219.153 29.9327 219.54C29.6527 219.913 29.5127 220.447 29.5127 221.14H26.2127C26.2393 220.007 26.4793 219.06 26.9327 218.3C27.3993 217.54 28.006 216.98 28.7527 216.62C29.5127 216.26 30.3527 216.08 31.2727 216.08C32.8593 216.08 34.0527 216.487 34.8527 217.3C35.666 218.113 36.0727 219.173 36.0727 220.48C36.0727 221.907 35.586 223.233 34.6127 224.46C33.6393 225.673 32.3993 226.86 30.8927 228.02H36.2927V230.8H26.2527V228.26ZM48.0784 219.38H41.8384V222.14C42.1051 221.847 42.4784 221.607 42.9584 221.42C43.4384 221.233 43.9584 221.14 44.5184 221.14C45.5184 221.14 46.3451 221.367 46.9984 221.82C47.6651 222.273 48.1518 222.86 48.4584 223.58C48.7651 224.3 48.9184 225.08 48.9184 225.92C48.9184 227.48 48.4784 228.72 47.5984 229.64C46.7184 230.547 45.4784 231 43.8784 231C42.8118 231 41.8851 230.82 41.0984 230.46C40.3118 230.087 39.7051 229.573 39.2784 228.92C38.8518 228.267 38.6184 227.513 38.5784 226.66H41.9184C41.9984 227.073 42.1918 227.42 42.4984 227.7C42.8051 227.967 43.2251 228.1 43.7584 228.1C44.3851 228.1 44.8518 227.9 45.1584 227.5C45.4651 227.1 45.6184 226.567 45.6184 225.9C45.6184 225.247 45.4584 224.747 45.1384 224.4C44.8184 224.053 44.3518 223.88 43.7384 223.88C43.2851 223.88 42.9118 223.993 42.6184 224.22C42.3251 224.433 42.1318 224.72 42.0384 225.08H38.7384V216.38H48.0784V219.38Z" fill="black"/>
<path d="M0.78 1093.26C1.23333 1092.9 1.44 1092.73 1.4 1092.76C2.70667 1091.68 3.73333 1090.79 4.48 1090.1C5.24 1089.41 5.88 1088.68 6.4 1087.92C6.92 1087.16 7.18 1086.42 7.18 1085.7C7.18 1085.15 7.05333 1084.73 6.8 1084.42C6.54667 1084.11 6.16667 1083.96 5.66 1083.96C5.15333 1083.96 4.75333 1084.15 4.46 1084.54C4.18 1084.91 4.04 1085.45 4.04 1086.14H0.74C0.766667 1085.01 1.00667 1084.06 1.46 1083.3C1.92667 1082.54 2.53333 1081.98 3.28 1081.62C4.04 1081.26 4.88 1081.08 5.8 1081.08C7.38667 1081.08 8.58 1081.49 9.38 1082.3C10.1933 1083.11 10.6 1084.17 10.6 1085.48C10.6 1086.91 10.1133 1088.23 9.14 1089.46C8.16667 1090.67 6.92667 1091.86 5.42 1093.02H10.82V1095.8H0.78V1093.26ZM12.3258 1088.5C12.3258 1086.21 12.7658 1084.4 13.6458 1083.08C14.5391 1081.76 15.9724 1081.1 17.9458 1081.1C19.9191 1081.1 21.3458 1081.76 22.2258 1083.08C23.1191 1084.4 23.5658 1086.21 23.5658 1088.5C23.5658 1090.82 23.1191 1092.64 22.2258 1093.96C21.3458 1095.28 19.9191 1095.94 17.9458 1095.94C15.9724 1095.94 14.5391 1095.28 13.6458 1093.96C12.7658 1092.64 12.3258 1090.82 12.3258 1088.5ZM20.2058 1088.5C20.2058 1087.15 20.0591 1086.12 19.7658 1085.4C19.4724 1084.67 18.8658 1084.3 17.9458 1084.3C17.0258 1084.3 16.4191 1084.67 16.1258 1085.4C15.8324 1086.12 15.6858 1087.15 15.6858 1088.5C15.6858 1089.41 15.7391 1090.16 15.8458 1090.76C15.9524 1091.35 16.1658 1091.83 16.4858 1092.2C16.8191 1092.56 17.3058 1092.74 17.9458 1092.74C18.5858 1092.74 19.0658 1092.56 19.3858 1092.2C19.7191 1091.83 19.9391 1091.35 20.0458 1090.76C20.1524 1090.16 20.2058 1089.41 20.2058 1088.5ZM25.2527 1093.26C25.706 1092.9 25.9127 1092.73 25.8727 1092.76C27.1793 1091.68 28.206 1090.79 28.9527 1090.1C29.7127 1089.41 30.3527 1088.68 30.8727 1087.92C31.3927 1087.16 31.6527 1086.42 31.6527 1085.7C31.6527 1085.15 31.526 1084.73 31.2727 1084.42C31.0193 1084.11 30.6393 1083.96 30.1327 1083.96C29.626 1083.96 29.226 1084.15 28.9327 1084.54C28.6527 1084.91 28.5127 1085.45 28.5127 1086.14H25.2127C25.2393 1085.01 25.4793 1084.06 25.9327 1083.3C26.3993 1082.54 27.006 1081.98 27.7527 1081.62C28.5127 1081.26 29.3527 1081.08 30.2727 1081.08C31.8593 1081.08 33.0527 1081.49 33.8527 1082.3C34.666 1083.11 35.0727 1084.17 35.0727 1085.48C35.0727 1086.91 34.586 1088.23 33.6127 1089.46C32.6393 1090.67 31.3993 1091.86 29.8927 1093.02H35.2927V1095.8H25.2527V1093.26ZM36.4384 1084.58V1081.4H41.9784V1096H38.4184V1084.58H36.4384Z" fill="black"/>
<path d="M0.78 1310.26C1.23333 1309.9 1.44 1309.73 1.4 1309.76C2.70667 1308.68 3.73333 1307.79 4.48 1307.1C5.24 1306.41 5.88 1305.68 6.4 1304.92C6.92 1304.16 7.18 1303.42 7.18 1302.7C7.18 1302.15 7.05333 1301.73 6.8 1301.42C6.54667 1301.11 6.16667 1300.96 5.66 1300.96C5.15333 1300.96 4.75333 1301.15 4.46 1301.54C4.18 1301.91 4.04 1302.45 4.04 1303.14H0.74C0.766667 1302.01 1.00667 1301.06 1.46 1300.3C1.92667 1299.54 2.53333 1298.98 3.28 1298.62C4.04 1298.26 4.88 1298.08 5.8 1298.08C7.38667 1298.08 8.58 1298.49 9.38 1299.3C10.1933 1300.11 10.6 1301.17 10.6 1302.48C10.6 1303.91 10.1133 1305.23 9.14 1306.46C8.16667 1307.67 6.92667 1308.86 5.42 1310.02H10.82V1312.8H0.78V1310.26ZM12.3258 1305.5C12.3258 1303.21 12.7658 1301.4 13.6458 1300.08C14.5391 1298.76 15.9724 1298.1 17.9458 1298.1C19.9191 1298.1 21.3458 1298.76 22.2258 1300.08C23.1191 1301.4 23.5658 1303.21 23.5658 1305.5C23.5658 1307.82 23.1191 1309.64 22.2258 1310.96C21.3458 1312.28 19.9191 1312.94 17.9458 1312.94C15.9724 1312.94 14.5391 1312.28 13.6458 1310.96C12.7658 1309.64 12.3258 1307.82 12.3258 1305.5ZM20.2058 1305.5C20.2058 1304.15 20.0591 1303.12 19.7658 1302.4C19.4724 1301.67 18.8658 1301.3 17.9458 1301.3C17.0258 1301.3 16.4191 1301.67 16.1258 1302.4C15.8324 1303.12 15.6858 1304.15 15.6858 1305.5C15.6858 1306.41 15.7391 1307.16 15.8458 1307.76C15.9524 1308.35 16.1658 1308.83 16.4858 1309.2C16.8191 1309.56 17.3058 1309.74 17.9458 1309.74C18.5858 1309.74 19.0658 1309.56 19.3858 1309.2C19.7191 1308.83 19.9391 1308.35 20.0458 1307.76C20.1524 1307.16 20.2058 1306.41 20.2058 1305.5ZM25.2527 1310.26C25.706 1309.9 25.9127 1309.73 25.8727 1309.76C27.1793 1308.68 28.206 1307.79 28.9527 1307.1C29.7127 1306.41 30.3527 1305.68 30.8727 1304.92C31.3927 1304.16 31.6527 1303.42 31.6527 1302.7C31.6527 1302.15 31.526 1301.73 31.2727 1301.42C31.0193 1301.11 30.6393 1300.96 30.1327 1300.96C29.626 1300.96 29.226 1301.15 28.9327 1301.54C28.6527 1301.91 28.5127 1302.45 28.5127 1303.14H25.2127C25.2393 1302.01 25.4793 1301.06 25.9327 1300.3C26.3993 1299.54 27.006 1298.98 27.7527 1298.62C28.5127 1298.26 29.3527 1298.08 30.2727 1298.08C31.8593 1298.08 33.0527 1298.49 33.8527 1299.3C34.666 1300.11 35.0727 1301.17 35.0727 1302.48C35.0727 1303.91 34.586 1305.23 33.6127 1306.46C32.6393 1307.67 31.3993 1308.86 29.8927 1310.02H35.2927V1312.8H25.2527V1310.26ZM36.7984 1305.5C36.7984 1303.21 37.2384 1301.4 38.1184 1300.08C39.0118 1298.76 40.4451 1298.1 42.4184 1298.1C44.3918 1298.1 45.8184 1298.76 46.6984 1300.08C47.5918 1301.4 48.0384 1303.21 48.0384 1305.5C48.0384 1307.82 47.5918 1309.64 46.6984 1310.96C45.8184 1312.28 44.3918 1312.94 42.4184 1312.94C40.4451 1312.94 39.0118 1312.28 38.1184 1310.96C37.2384 1309.64 36.7984 1307.82 36.7984 1305.5ZM44.6784 1305.5C44.6784 1304.15 44.5318 1303.12 44.2384 1302.4C43.9451 1301.67 43.3384 1301.3 42.4184 1301.3C41.4984 1301.3 40.8918 1301.67 40.5984 1302.4C40.3051 1303.12 40.1584 1304.15 40.1584 1305.5C40.1584 1306.41 40.2118 1307.16 40.3184 1307.76C40.4251 1308.35 40.6384 1308.83 40.9584 1309.2C41.2918 1309.56 41.7784 1309.74 42.4184 1309.74C43.0584 1309.74 43.5384 1309.56 43.8584 1309.2C44.1918 1308.83 44.4118 1308.35 44.5184 1307.76C44.6251 1307.16 44.6784 1306.41 44.6784 1305.5Z" fill="black"/>
<path d="M0.78 1527.26C1.23333 1526.9 1.44 1526.73 1.4 1526.76C2.70667 1525.68 3.73333 1524.79 4.48 1524.1C5.24 1523.41 5.88 1522.68 6.4 1521.92C6.92 1521.16 7.18 1520.42 7.18 1519.7C7.18 1519.15 7.05333 1518.73 6.8 1518.42C6.54667 1518.11 6.16667 1517.96 5.66 1517.96C5.15333 1517.96 4.75333 1518.15 4.46 1518.54C4.18 1518.91 4.04 1519.45 4.04 1520.14H0.74C0.766667 1519.01 1.00667 1518.06 1.46 1517.3C1.92667 1516.54 2.53333 1515.98 3.28 1515.62C4.04 1515.26 4.88 1515.08 5.8 1515.08C7.38667 1515.08 8.58 1515.49 9.38 1516.3C10.1933 1517.11 10.6 1518.17 10.6 1519.48C10.6 1520.91 10.1133 1522.23 9.14 1523.46C8.16667 1524.67 6.92667 1525.86 5.42 1527.02H10.82V1529.8H0.78V1527.26ZM12.3258 1522.5C12.3258 1520.21 12.7658 1518.4 13.6458 1517.08C14.5391 1515.76 15.9724 1515.1 17.9458 1515.1C19.9191 1515.1 21.3458 1515.76 22.2258 1517.08C23.1191 1518.4 23.5658 1520.21 23.5658 1522.5C23.5658 1524.82 23.1191 1526.64 22.2258 1527.96C21.3458 1529.28 19.9191 1529.94 17.9458 1529.94C15.9724 1529.94 14.5391 1529.28 13.6458 1527.96C12.7658 1526.64 12.3258 1524.82 12.3258 1522.5ZM20.2058 1522.5C20.2058 1521.15 20.0591 1520.12 19.7658 1519.4C19.4724 1518.67 18.8658 1518.3 17.9458 1518.3C17.0258 1518.3 16.4191 1518.67 16.1258 1519.4C15.8324 1520.12 15.6858 1521.15 15.6858 1522.5C15.6858 1523.41 15.7391 1524.16 15.8458 1524.76C15.9524 1525.35 16.1658 1525.83 16.4858 1526.2C16.8191 1526.56 17.3058 1526.74 17.9458 1526.74C18.5858 1526.74 19.0658 1526.56 19.3858 1526.2C19.7191 1525.83 19.9391 1525.35 20.0458 1524.76C20.1524 1524.16 20.2058 1523.41 20.2058 1522.5ZM25.0127 1518.58V1515.4H30.5527V1530H26.9927V1518.58H25.0127ZM36.5722 1525.72C36.7722 1526.77 37.3855 1527.3 38.4122 1527.3C39.1189 1527.3 39.6189 1526.99 39.9122 1526.36C40.2055 1525.73 40.3522 1524.71 40.3522 1523.3C40.0589 1523.71 39.6589 1524.03 39.1522 1524.26C38.6455 1524.49 38.0789 1524.6 37.4522 1524.6C36.5989 1524.6 35.8389 1524.43 35.1722 1524.08C34.5055 1523.72 33.9789 1523.19 33.5922 1522.5C33.2189 1521.79 33.0322 1520.94 33.0322 1519.94C33.0322 1518.95 33.2322 1518.09 33.6322 1517.36C34.0455 1516.63 34.6255 1516.06 35.3722 1515.66C36.1322 1515.26 37.0255 1515.06 38.0522 1515.06C40.0255 1515.06 41.4055 1515.67 42.1922 1516.9C42.9789 1518.13 43.3722 1519.93 43.3722 1522.32C43.3722 1524.05 43.2122 1525.49 42.8922 1526.62C42.5855 1527.74 42.0589 1528.59 41.3122 1529.18C40.5789 1529.77 39.5722 1530.06 38.2922 1530.06C37.2789 1530.06 36.4122 1529.86 35.6922 1529.46C34.9855 1529.06 34.4389 1528.53 34.0522 1527.88C33.6789 1527.23 33.4655 1526.51 33.4122 1525.72H36.5722ZM38.2322 1521.9C38.7922 1521.9 39.2389 1521.73 39.5722 1521.4C39.9055 1521.05 40.0722 1520.59 40.0722 1520C40.0722 1519.36 39.8989 1518.87 39.5522 1518.52C39.2055 1518.17 38.7389 1518 38.1522 1518C37.5655 1518 37.0989 1518.18 36.7522 1518.54C36.4189 1518.89 36.2522 1519.37 36.2522 1519.98C36.2522 1520.55 36.4189 1521.02 36.7522 1521.38C37.0989 1521.73 37.5922 1521.9 38.2322 1521.9Z" fill="black"/>
<path d="M0.78 1744.26C1.23333 1743.9 1.44 1743.73 1.4 1743.76C2.70667 1742.68 3.73333 1741.79 4.48 1741.1C5.24 1740.41 5.88 1739.68 6.4 1738.92C6.92 1738.16 7.18 1737.42 7.18 1736.7C7.18 1736.15 7.05333 1735.73 6.8 1735.42C6.54667 1735.11 6.16667 1734.96 5.66 1734.96C5.15333 1734.96 4.75333 1735.15 4.46 1735.54C4.18 1735.91 4.04 1736.45 4.04 1737.14H0.74C0.766667 1736.01 1.00667 1735.06 1.46 1734.3C1.92667 1733.54 2.53333 1732.98 3.28 1732.62C4.04 1732.26 4.88 1732.08 5.8 1732.08C7.38667 1732.08 8.58 1732.49 9.38 1733.3C10.1933 1734.11 10.6 1735.17 10.6 1736.48C10.6 1737.91 10.1133 1739.23 9.14 1740.46C8.16667 1741.67 6.92667 1742.86 5.42 1744.02H10.82V1746.8H0.78V1744.26ZM12.3258 1739.5C12.3258 1737.21 12.7658 1735.4 13.6458 1734.08C14.5391 1732.76 15.9724 1732.1 17.9458 1732.1C19.9191 1732.1 21.3458 1732.76 22.2258 1734.08C23.1191 1735.4 23.5658 1737.21 23.5658 1739.5C23.5658 1741.82 23.1191 1743.64 22.2258 1744.96C21.3458 1746.28 19.9191 1746.94 17.9458 1746.94C15.9724 1746.94 14.5391 1746.28 13.6458 1744.96C12.7658 1743.64 12.3258 1741.82 12.3258 1739.5ZM20.2058 1739.5C20.2058 1738.15 20.0591 1737.12 19.7658 1736.4C19.4724 1735.67 18.8658 1735.3 17.9458 1735.3C17.0258 1735.3 16.4191 1735.67 16.1258 1736.4C15.8324 1737.12 15.6858 1738.15 15.6858 1739.5C15.6858 1740.41 15.7391 1741.16 15.8458 1741.76C15.9524 1742.35 16.1658 1742.83 16.4858 1743.2C16.8191 1743.56 17.3058 1743.74 17.9458 1743.74C18.5858 1743.74 19.0658 1743.56 19.3858 1743.2C19.7191 1742.83 19.9391 1742.35 20.0458 1741.76C20.1524 1741.16 20.2058 1740.41 20.2058 1739.5ZM25.3727 1739.5C25.3727 1737.21 25.8127 1735.4 26.6927 1734.08C27.586 1732.76 29.0193 1732.1 30.9927 1732.1C32.966 1732.1 34.3927 1732.76 35.2727 1734.08C36.166 1735.4 36.6127 1737.21 36.6127 1739.5C36.6127 1741.82 36.166 1743.64 35.2727 1744.96C34.3927 1746.28 32.966 1746.94 30.9927 1746.94C29.0193 1746.94 27.586 1746.28 26.6927 1744.96C25.8127 1743.64 25.3727 1741.82 25.3727 1739.5ZM33.2527 1739.5C33.2527 1738.15 33.106 1737.12 32.8127 1736.4C32.5193 1735.67 31.9127 1735.3 30.9927 1735.3C30.0727 1735.3 29.466 1735.67 29.1727 1736.4C28.8793 1737.12 28.7327 1738.15 28.7327 1739.5C28.7327 1740.41 28.786 1741.16 28.8927 1741.76C28.9993 1742.35 29.2127 1742.83 29.5327 1743.2C29.866 1743.56 30.3527 1743.74 30.9927 1743.74C31.6327 1743.74 32.1127 1743.56 32.4327 1743.2C32.766 1742.83 32.986 1742.35 33.0927 1741.76C33.1993 1741.16 33.2527 1740.41 33.2527 1739.5ZM48.6995 1735.38H42.4595V1738.14C42.7262 1737.85 43.0995 1737.61 43.5795 1737.42C44.0595 1737.23 44.5795 1737.14 45.1395 1737.14C46.1395 1737.14 46.9662 1737.37 47.6195 1737.82C48.2862 1738.27 48.7729 1738.86 49.0795 1739.58C49.3862 1740.3 49.5395 1741.08 49.5395 1741.92C49.5395 1743.48 49.0995 1744.72 48.2195 1745.64C47.3395 1746.55 46.0995 1747 44.4995 1747C43.4329 1747 42.5062 1746.82 41.7195 1746.46C40.9329 1746.09 40.3262 1745.57 39.8995 1744.92C39.4729 1744.27 39.2395 1743.51 39.1995 1742.66H42.5395C42.6195 1743.07 42.8129 1743.42 43.1195 1743.7C43.4262 1743.97 43.8462 1744.1 44.3795 1744.1C45.0062 1744.1 45.4729 1743.9 45.7795 1743.5C46.0862 1743.1 46.2395 1742.57 46.2395 1741.9C46.2395 1741.25 46.0795 1740.75 45.7595 1740.4C45.4395 1740.05 44.9729 1739.88 44.3595 1739.88C43.9062 1739.88 43.5329 1739.99 43.2395 1740.22C42.9462 1740.43 42.7529 1740.72 42.6595 1741.08H39.3595V1732.38H48.6995V1735.38Z" fill="black"/>
</svg>
