<svg width="171" height="1096" viewBox="0 0 171 1096" fill="none" xmlns="http://www.w3.org/2000/svg">
<path d="M22 117C22 122.523 17.5228 127 12 127C6.47715 127 2 122.523 2 117C2 111.477 6.47715 107 12 107C17.5228 107 22 111.477 22 117Z" stroke="black" stroke-width="4"/>
<path d="M22 334C22 339.523 17.5228 344 12 344C6.47715 344 2 339.523 2 334C2 328.477 6.47715 324 12 324C17.5228 324 22 328.477 22 334Z" stroke="black" stroke-width="4"/>
<path d="M22 551C22 556.523 17.5228 561 12 561C6.47715 561 2 556.523 2 551C2 545.477 6.47715 541 12 541C17.5228 541 22 545.477 22 551Z" stroke="black" stroke-width="4"/>
<path d="M22 768C22 773.523 17.5228 778 12 778C6.47715 778 2 773.523 2 768C2 762.477 6.47715 758 12 758C17.5228 758 22 762.477 22 768Z" stroke="black" stroke-width="4"/>
<path d="M22 985C22 990.523 17.5228 995 12 995C6.47715 995 2 990.523 2 985C2 979.477 6.47715 975 12 975C17.5228 975 22 979.477 22 985Z" stroke="black" stroke-width="4"/>
<path d="M6.34 876.16C5.74 876.16 5.24667 875.987 4.86 875.64C4.48667 875.28 4.3 874.84 4.3 874.32C4.3 873.787 4.48667 873.34 4.86 872.98C5.24667 872.62 5.74 872.44 6.34 872.44C6.92667 872.44 7.40667 872.62 7.78 872.98C8.16667 873.34 8.36 873.787 8.36 874.32C8.36 874.84 8.16667 875.28 7.78 875.64C7.40667 875.987 6.92667 876.16 6.34 876.16ZM11.9845 876.16C11.3845 876.16 10.8912 875.987 10.5045 875.64C10.1312 875.28 9.94453 874.84 9.94453 874.32C9.94453 873.787 10.1312 873.34 10.5045 872.98C10.8912 872.62 11.3845 872.44 11.9845 872.44C12.5712 872.44 13.0512 872.62 13.4245 872.98C13.8112 873.34 14.0045 873.787 14.0045 874.32C14.0045 874.84 13.8112 875.28 13.4245 875.64C13.0512 875.987 12.5712 876.16 11.9845 876.16ZM17.6291 876.16C17.0291 876.16 16.5357 875.987 16.1491 875.64C15.7757 875.28 15.5891 874.84 15.5891 874.32C15.5891 873.787 15.7757 873.34 16.1491 872.98C16.5357 872.62 17.0291 872.44 17.6291 872.44C18.2157 872.44 18.6957 872.62 19.0691 872.98C19.4557 873.34 19.6491 873.787 19.6491 874.32C19.6491 874.84 19.4557 875.28 19.0691 875.64C18.6957 875.987 18.2157 876.16 17.6291 876.16Z" fill="black"/>
<rect x="8" y="123" width="8" height="6" fill="#F0F0F0"/>
<rect x="8" y="340" width="8" height="6" fill="#F0F0F0"/>
<rect x="8" y="557" width="8" height="6" fill="#F0F0F0"/>
<rect x="8" y="774" width="8" height="6" fill="#F0F0F0"/>
<rect x="8" y="991" width="8" height="6" fill="#F0F0F0"/>
<line x1="12" y1="322" x2="12" y2="122" stroke="black" stroke-width="4"/>
<line x1="12" y1="106" x2="12" y2="6" stroke="black" stroke-width="4"/>
<line x1="12" y1="539" x2="12" y2="339" stroke="black" stroke-width="4"/>
<line x1="12" y1="756" x2="12" y2="556" stroke="black" stroke-width="4"/>
<line x1="12" y1="863" x2="12" y2="773" stroke="black" stroke-width="4"/>
<line x1="12" y1="974" x2="12" y2="884" stroke="black" stroke-width="4"/>
<line x1="12" y1="1090" x2="12" y2="990" stroke="black" stroke-width="4"/>
<circle cx="12" cy="117" r="6" fill="black"/>
<circle cx="12" cy="334" r="6" fill="black"/>
<circle cx="12" cy="551" r="6" fill="black"/>
<circle cx="12" cy="768" r="6" fill="black"/>
<circle cx="12" cy="985" r="6" fill="black"/>
<rect x="6" y="1084" width="12" height="12" fill="black"/>
<rect x="6" width="12" height="12" fill="black"/>
<rect x="72" y="553" width="16" height="432" rx="4" fill="#FEB139"/>
<rect x="99" y="336" width="16" height="434" rx="4" fill="#F55353"/>
<path d="M72 0H88V545C88 547.209 86.2091 549 84 549H76C73.7909 549 72 547.209 72 545V0Z" fill="#143F6B"/>
<path d="M99 0H115V328C115 330.209 113.209 332 111 332H103C100.791 332 99 330.209 99 328V0Z" fill="#FEDC2A"/>
<rect x="98" y="358" width="18" height="6" fill="#F0F0F0"/>
<line x1="88" y1="789" x2="162" y2="789" stroke="#FEB139" stroke-width="2"/>
<line x1="88" y1="361" x2="162" y2="361" stroke="#143F6B" stroke-width="2"/>
<path d="M115 575H162" stroke="#F55353" stroke-width="2"/>
<path d="M115 147H162" stroke="#FEDC2A" stroke-width="2"/>
<circle cx="165" cy="789" r="6" fill="#FEB139"/>
<circle cx="165" cy="361" r="6" fill="#143F6B"/>
<circle cx="165" cy="575" r="6" fill="#F55353"/>
<circle cx="165" cy="147" r="6" fill="#FEDC2A"/>
</svg>
